<?xml version="1.0" standalone="no"?>
<!DOCTYPE svg PUBLIC "-//W3C//DTD SVG 20010904//EN"
 "http://www.w3.org/TR/2001/REC-SVG-20010904/DTD/svg10.dtd">
<svg version="1.0" xmlns="http://www.w3.org/2000/svg"
 width="512.000000pt" height="512.000000pt" viewBox="0 0 512.000000 512.000000"
 preserveAspectRatio="xMidYMid meet">
<metadata>
Created by potrace 1.11, written by Peter Selinger 2001-2013
</metadata>
<g transform="translate(0.000000,512.000000) scale(0.100000,-0.100000)"
fill="#000000" stroke="none">
<path d="M0 4560 l0 -560 535 0 535 0 0 -180 0 -180 -165 0 -165 0 0 -405 0
-405 615 0 615 0 0 405 0 405 -165 0 -165 0 2 178 3 177 543 3 542 2 0 -180 0
-180 -160 0 -160 0 0 -1065 0 -1065 160 0 160 0 0 -180 0 -180 -545 0 -545 0
2 178 3 177 163 3 162 2 0 480 0 480 -615 0 -615 0 0 -480 0 -480 165 0 165 0
0 -180 0 -180 -535 0 -535 0 0 -575 0 -575 2560 0 2560 0 -1 908 0 907 -25
-85 c-40 -135 -87 -213 -189 -315 -101 -101 -173 -145 -322 -195 -180 -60
-211 -62 -956 -67 l-677 -4 2 178 3 178 173 3 172 2 0 1065 0 1065 -175 0
-175 0 2 178 3 177 615 0 c620 -1 729 -5 895 -40 184 -38 351 -177 449 -373
94 -187 89 -462 -11 -662 -43 -85 -142 -191 -215 -230 l-47 -24 89 -44 c183
-90 318 -255 370 -455 19 -71 19 -60 19 1441 l1 1512 -2560 0 -2560 0 0 -560z"/>
<path d="M0 2575 l0 -1065 150 0 150 0 0 1065 0 1065 -150 0 -150 0 0 -1065z"/>
<path d="M3740 3225 l0 -418 213 7 c309 10 408 36 499 134 70 74 92 142 93
282 0 106 -2 120 -29 177 -49 106 -129 166 -274 205 -62 16 -120 21 -289 25
l-213 6 0 -418z"/>
<path d="M3740 1985 l0 -478 263 6 c174 4 286 11 335 21 221 46 352 214 352
454 0 237 -144 403 -387 448 -45 8 -181 17 -320 21 l-243 6 0 -478z"/>
</g>
</svg>
